<svg width="104" height="31" viewBox="0 0 104 31" fill="none" xmlns="http://www.w3.org/2000/svg">
<rect width="104" height="31" rx="8" fill="#EBFFEB"/>
<path d="M32.084 19H33.414L34.436 16.564H39.392L40.4 19H41.772L37.558 9.088H36.452L32.084 19ZM38.944 15.472H34.898L36.956 10.6H36.984L38.944 15.472ZM48.4234 13.316C47.7654 12.602 46.8694 12.28 45.9034 12.28C43.8874 12.28 42.5154 13.736 42.5154 15.724C42.5154 17.74 43.8734 19.168 45.9034 19.168C46.8554 19.168 47.7514 18.846 48.3814 18.118L47.5694 17.348C47.1634 17.908 46.6174 18.16 45.9034 18.16C44.5734 18.16 43.6914 17.068 43.6914 15.724C43.6914 14.38 44.4334 13.288 45.9034 13.288C46.5614 13.288 47.0934 13.526 47.5554 14.086L48.4234 13.316ZM53.2313 12.448H51.2993V10.586H50.2073V12.448H48.7793V13.372H50.2073V16.97C50.2073 18.328 50.4593 19.168 52.0133 19.168C52.4193 19.168 52.9093 19.098 53.2873 18.93L53.2453 17.936C52.9513 18.09 52.6013 18.16 52.2793 18.16C51.3133 18.16 51.2993 17.488 51.2993 16.648V13.372H53.2313V12.448ZM54.6672 19H55.7592V12.448H54.6672V19ZM54.4152 9.886C54.4152 10.348 54.7512 10.684 55.2132 10.684C55.6752 10.684 56.0112 10.348 56.0112 9.886C56.0112 9.452 55.6612 9.088 55.2132 9.088C54.7652 9.088 54.4152 9.452 54.4152 9.886ZM63.5045 12.448H62.3285L60.3825 17.586H60.3545L58.3105 12.448H57.0365L59.7105 19H60.9145L63.5045 12.448ZM69.7124 17.166C69.1944 17.824 68.5644 18.16 67.6264 18.16C66.4364 18.16 65.5684 17.194 65.4844 16.06H70.7764V15.71C70.7764 13.54 69.5164 12.28 67.6684 12.28C65.7364 12.28 64.3084 13.694 64.3084 15.724C64.3084 17.628 65.5684 19.168 67.6264 19.168C68.8444 19.168 69.7684 18.804 70.5384 17.81L69.7124 17.166ZM65.4844 15.136C65.6244 14.03 66.4224 13.288 67.6264 13.288C68.8304 13.288 69.5584 14.03 69.6004 15.136H65.4844Z" fill="#03A300"/>
</svg>
