<svg width="48" height="49" viewBox="0 0 48 49" fill="none" xmlns="http://www.w3.org/2000/svg">
<rect y="0.5" width="48" height="48" rx="8" fill="#F4F6F6"/>
<g clip-path="url(#clip0_712_2075)">
<path d="M10.668 35.1667H37.3346V37.8334H10.668V35.1667ZM13.3346 24.5H16.0013V33.8334H13.3346V24.5ZM20.0013 24.5H22.668V33.8334H20.0013V24.5ZM25.3346 24.5H28.0013V33.8334H25.3346V24.5ZM32.0013 24.5H34.668V33.8334H32.0013V24.5ZM10.668 17.8334L24.0013 11.1667L37.3346 17.8334V23.1667H10.668V17.8334ZM13.3346 19.4814V20.5H34.668V19.4814L24.0013 14.148L13.3346 19.4814ZM24.0013 19.1667C23.6477 19.1667 23.3085 19.0262 23.0585 18.7762C22.8084 18.5261 22.668 18.187 22.668 17.8334C22.668 17.4797 22.8084 17.1406 23.0585 16.8905C23.3085 16.6405 23.6477 16.5 24.0013 16.5C24.3549 16.5 24.6941 16.6405 24.9441 16.8905C25.1942 17.1406 25.3346 17.4797 25.3346 17.8334C25.3346 18.187 25.1942 18.5261 24.9441 18.7762C24.6941 19.0262 24.3549 19.1667 24.0013 19.1667Z" fill="#657E7B"/>
</g>
<defs>
<clipPath id="clip0_712_2075">
<rect width="32" height="32" fill="white" transform="translate(8 8.5)"/>
</clipPath>
</defs>
</svg>
