<svg width="48" height="49" viewBox="0 0 48 49" fill="none" xmlns="http://www.w3.org/2000/svg">
<rect y="0.5" width="48" height="48" rx="8" fill="#F4F6F6"/>
<g clip-path="url(#clip0_1206_4014)">
<path d="M24.0026 13.8334C32.1026 13.8334 38.6693 17.4147 38.6693 21.8334V27.1667C38.6693 31.5854 32.1026 35.1667 24.0026 35.1667C16.0466 35.1667 9.5706 31.712 9.3426 27.4027L9.33594 27.1667V21.8334C9.33594 17.4147 15.9026 13.8334 24.0026 13.8334ZM24.0026 29.8334C19.0426 29.8334 14.6559 28.4907 12.0026 26.4334V27.1667C12.0026 29.676 17.1799 32.5 24.0026 32.5C30.6826 32.5 35.7866 29.7934 35.9959 27.324L36.0026 27.1667L36.0039 26.4334C33.3506 28.4894 28.9639 29.8334 24.0026 29.8334ZM24.0026 16.5C17.1799 16.5 12.0026 19.324 12.0026 21.8334C12.0026 24.3427 17.1799 27.1667 24.0026 27.1667C30.8253 27.1667 36.0026 24.3427 36.0026 21.8334C36.0026 19.324 30.8253 16.5 24.0026 16.5Z" fill="#657E7B"/>
</g>
<defs>
<clipPath id="clip0_1206_4014">
<rect width="32" height="32" fill="white" transform="translate(8 8.5)"/>
</clipPath>
</defs>
</svg>
