<svg width="104" height="31" viewBox="0 0 104 31" fill="none" xmlns="http://www.w3.org/2000/svg">
<rect width="104" height="31" rx="8" fill="#FFF6EB"/>
<path d="M28.732 19H29.908V9.088H28.732V19ZM32.1727 19H33.2647V15.808C33.2647 14.31 33.8807 13.288 35.2947 13.288C36.3167 13.288 36.7927 13.974 36.7927 15.066V19H37.8847V14.954C37.8847 13.372 37.1147 12.28 35.3927 12.28C34.3147 12.28 33.5027 12.882 33.2087 13.526H33.1807C33.1807 13.162 33.1527 12.798 33.1527 12.448H32.1167C32.1167 12.882 32.1727 13.4 32.1727 14.002V19ZM40.554 14.002C41.072 13.526 41.8 13.288 42.5 13.288C43.522 13.288 44.124 13.778 44.124 14.73V14.926H43.704C42.094 14.926 39.574 15.052 39.574 17.222C39.574 18.496 40.68 19.168 42.01 19.168C43.004 19.168 43.732 18.692 44.166 18.02H44.194C44.194 18.3 44.194 18.706 44.264 19H45.314C45.258 18.664 45.216 18.244 45.216 17.866V15.052C45.216 13.204 44.404 12.28 42.472 12.28C41.52 12.28 40.54 12.602 39.868 13.288L40.554 14.002ZM44.124 15.85V16.27C44.096 17.334 43.452 18.244 42.192 18.244C41.366 18.244 40.75 17.936 40.75 17.11C40.75 16.228 41.646 15.85 43.032 15.85H44.124ZM52.7418 13.316C52.0838 12.602 51.1878 12.28 50.2218 12.28C48.2058 12.28 46.8338 13.736 46.8338 15.724C46.8338 17.74 48.1918 19.168 50.2218 19.168C51.1738 19.168 52.0698 18.846 52.6998 18.118L51.8878 17.348C51.4818 17.908 50.9358 18.16 50.2218 18.16C48.8918 18.16 48.0098 17.068 48.0098 15.724C48.0098 14.38 48.7518 13.288 50.2218 13.288C50.8798 13.288 51.4118 13.526 51.8738 14.086L52.7418 13.316ZM57.5497 12.448H55.6177V10.586H54.5257V12.448H53.0977V13.372H54.5257V16.97C54.5257 18.328 54.7777 19.168 56.3317 19.168C56.7377 19.168 57.2277 19.098 57.6057 18.93L57.5637 17.936C57.2697 18.09 56.9197 18.16 56.5977 18.16C55.6317 18.16 55.6177 17.488 55.6177 16.648V13.372H57.5497V12.448ZM58.9856 19H60.0776V12.448H58.9856V19ZM58.7336 9.886C58.7336 10.348 59.0696 10.684 59.5316 10.684C59.9936 10.684 60.3296 10.348 60.3296 9.886C60.3296 9.452 59.9796 9.088 59.5316 9.088C59.0836 9.088 58.7336 9.452 58.7336 9.886ZM67.8228 12.448H66.6468L64.7008 17.586H64.6728L62.6288 12.448H61.3548L64.0288 19H65.2328L67.8228 12.448ZM74.0308 17.166C73.5128 17.824 72.8828 18.16 71.9448 18.16C70.7548 18.16 69.8868 17.194 69.8028 16.06H75.0948V15.71C75.0948 13.54 73.8348 12.28 71.9868 12.28C70.0548 12.28 68.6268 13.694 68.6268 15.724C68.6268 17.628 69.8868 19.168 71.9448 19.168C73.1628 19.168 74.0868 18.804 74.8568 17.81L74.0308 17.166ZM69.8028 15.136C69.9428 14.03 70.7408 13.288 71.9448 13.288C73.1488 13.288 73.8768 14.03 73.9188 15.136H69.8028Z" fill="#A35800"/>
</svg>
