<svg width="49" height="49" viewBox="0 0 49 49" fill="none" xmlns="http://www.w3.org/2000/svg">
<rect x="0.5" y="0.5" width="48" height="48" rx="8" fill="#F4F6F6"/>
<g clip-path="url(#clip0_1206_4023)">
<path d="M37.4065 19.1399L35.5198 21.0239L32.6931 18.1973L29.8638 21.0239L34.5771 25.7386L32.6918 27.6239L31.7491 26.6813L23.2638 35.1666H15.7211L12.8931 37.9946L11.0078 36.1093L13.8358 33.2813V25.7386L22.3211 17.2533L21.3785 16.3106L23.2638 14.4253L27.9785 19.1386L30.8051 16.3106L27.9785 13.4826L29.8638 11.5959L37.4065 19.1386V19.1399ZM29.8638 24.7959L24.2065 19.1386L22.3211 21.0239L25.1491 23.8533L23.2638 25.7386L20.4358 22.9106L18.5505 24.7959L21.3771 27.6239L19.4931 29.5093L16.6638 26.6813L16.5025 26.8426V32.4999H22.1598L29.8638 24.7959Z" fill="#657E7B"/>
</g>
<defs>
<clipPath id="clip0_1206_4023">
<rect width="32" height="32" fill="white" transform="translate(8.5 8.5)"/>
</clipPath>
</defs>
</svg>
