<svg width="48" height="48" viewBox="0 0 48 48" fill="none" xmlns="http://www.w3.org/2000/svg">
<rect width="48" height="48" rx="8" fill="#F4F6F6"/>
<g clip-path="url(#clip0_54_307)">
<path d="M37.3334 22.6667V34.6667H34.6667V30.6667H13.3334V34.6667H10.6667V13.3334H13.3334V26.6667H24.0001V17.3334H32.0001C33.4146 17.3334 34.7711 17.8953 35.7713 18.8955C36.7715 19.8957 37.3334 21.2522 37.3334 22.6667ZM34.6667 26.6667V22.6667C34.6667 21.9595 34.3858 21.2812 33.8857 20.7811C33.3856 20.281 32.7073 20 32.0001 20H26.6667V26.6667H34.6667ZM18.6667 22.6667C19.0204 22.6667 19.3595 22.5262 19.6096 22.2762C19.8596 22.0261 20.0001 21.687 20.0001 21.3334C20.0001 20.9798 19.8596 20.6406 19.6096 20.3906C19.3595 20.1405 19.0204 20 18.6667 20C18.3131 20 17.974 20.1405 17.7239 20.3906C17.4739 20.6406 17.3334 20.9798 17.3334 21.3334C17.3334 21.687 17.4739 22.0261 17.7239 22.2762C17.974 22.5262 18.3131 22.6667 18.6667 22.6667ZM18.6667 25.3334C17.6059 25.3334 16.5885 24.9119 15.8383 24.1618C15.0882 23.4117 14.6667 22.3942 14.6667 21.3334C14.6667 20.2725 15.0882 19.2551 15.8383 18.5049C16.5885 17.7548 17.6059 17.3334 18.6667 17.3334C19.7276 17.3334 20.745 17.7548 21.4952 18.5049C22.2453 19.2551 22.6667 20.2725 22.6667 21.3334C22.6667 22.3942 22.2453 23.4117 21.4952 24.1618C20.745 24.9119 19.7276 25.3334 18.6667 25.3334Z" fill="#657E7B"/>
</g>
<defs>
<clipPath id="clip0_54_307">
<rect width="32" height="32" fill="white" transform="translate(8 8)"/>
</clipPath>
</defs>
</svg>
