<svg width="48" height="49" viewBox="0 0 48 49" fill="none" xmlns="http://www.w3.org/2000/svg">
<rect y="0.5" width="48" height="48" rx="8" fill="#F8F3F2"/>
<g clip-path="url(#clip0_54_324)">
<path d="M13.3333 37.8334C13.3333 35.0044 14.4571 32.2913 16.4574 30.2909C18.4578 28.2905 21.1709 27.1667 23.9999 27.1667C26.8289 27.1667 29.542 28.2905 31.5424 30.2909C33.5428 32.2913 34.6666 35.0044 34.6666 37.8334H13.3333ZM25.3333 29.944V35.1667H31.5453C31.0686 33.8219 30.2415 32.6288 29.1495 31.7106C28.0574 30.7925 26.7399 30.1826 25.3333 29.944ZM22.6666 35.1667V29.944C21.2599 30.1826 19.9425 30.7925 18.8504 31.7106C17.7583 32.6288 16.9312 33.8219 16.4546 35.1667H22.6666ZM23.9999 25.8334C19.5799 25.8334 15.9999 22.2534 15.9999 17.8334C15.9999 13.4134 19.5799 9.83337 23.9999 9.83337C28.4199 9.83337 31.9999 13.4134 31.9999 17.8334C31.9999 22.2534 28.4199 25.8334 23.9999 25.8334ZM23.9999 23.1667C26.9466 23.1667 29.3333 20.78 29.3333 17.8334C29.3333 14.8867 26.9466 12.5 23.9999 12.5C21.0533 12.5 18.6666 14.8867 18.6666 17.8334C18.6666 20.78 21.0533 23.1667 23.9999 23.1667Z" fill="#AB948C"/>
</g>
<defs>
<clipPath id="clip0_54_324">
<rect width="32" height="32" fill="white" transform="translate(8 8.5)"/>
</clipPath>
</defs>
</svg>
