<svg width="48" height="49" viewBox="0 0 48 49" fill="none" xmlns="http://www.w3.org/2000/svg">
<rect y="0.5" width="48" height="48" rx="8" fill="#F8F3F2"/>
<g clip-path="url(#clip0_98_2015)">
<path d="M13.334 37.8334C13.334 35.0044 14.4578 32.2913 16.4582 30.2909C18.4586 28.2905 21.1717 27.1667 24.0007 27.1667C26.8296 27.1667 29.5427 28.2905 31.5431 30.2909C33.5435 32.2913 34.6673 35.0044 34.6673 37.8334H13.334ZM25.334 29.944V35.1667H31.546C31.0694 33.8219 30.2423 32.6288 29.1502 31.7106C28.0581 30.7925 26.7407 30.1826 25.334 29.944ZM22.6673 35.1667V29.944C21.2606 30.1826 19.9432 30.7925 18.8511 31.7106C17.759 32.6288 16.9319 33.8219 16.4553 35.1667H22.6673ZM24.0007 25.8334C19.5807 25.8334 16.0007 22.2534 16.0007 17.8334C16.0007 13.4134 19.5807 9.83337 24.0007 9.83337C28.4207 9.83337 32.0007 13.4134 32.0007 17.8334C32.0007 22.2534 28.4207 25.8334 24.0007 25.8334ZM24.0007 23.1667C26.9473 23.1667 29.334 20.78 29.334 17.8334C29.334 14.8867 26.9473 12.5 24.0007 12.5C21.054 12.5 18.6673 14.8867 18.6673 17.8334C18.6673 20.78 21.054 23.1667 24.0007 23.1667Z" fill="#AB948C"/>
</g>
<defs>
<clipPath id="clip0_98_2015">
<rect width="32" height="32" fill="white" transform="translate(8 8.5)"/>
</clipPath>
</defs>
</svg>
