<svg width="48" height="49" viewBox="0 0 48 49" fill="none" xmlns="http://www.w3.org/2000/svg">
<rect y="0.5" width="48" height="48" rx="8" fill="#F4F6F6"/>
<g clip-path="url(#clip0_957_2914)">
<path d="M23.9987 13.8334C32.0987 13.8334 38.6654 17.4147 38.6654 21.8334V27.1667C38.6654 31.5854 32.0987 35.1667 23.9987 35.1667C16.0427 35.1667 9.5667 31.712 9.3387 27.4027L9.33203 27.1667V21.8334C9.33203 17.4147 15.8987 13.8334 23.9987 13.8334ZM23.9987 29.8334C19.0387 29.8334 14.652 28.4907 11.9987 26.4334V27.1667C11.9987 29.676 17.176 32.5 23.9987 32.5C30.6787 32.5 35.7827 29.7934 35.992 27.324L35.9987 27.1667L36 26.4334C33.3467 28.4894 28.96 29.8334 23.9987 29.8334ZM23.9987 16.5C17.176 16.5 11.9987 19.324 11.9987 21.8334C11.9987 24.3427 17.176 27.1667 23.9987 27.1667C30.8214 27.1667 35.9987 24.3427 35.9987 21.8334C35.9987 19.324 30.8214 16.5 23.9987 16.5Z" fill="#657E7B"/>
</g>
<defs>
<clipPath id="clip0_957_2914">
<rect width="32" height="32" fill="white" transform="translate(8 8.5)"/>
</clipPath>
</defs>
</svg>
