<svg width="48" height="49" viewBox="0 0 48 49" fill="none" xmlns="http://www.w3.org/2000/svg">
<rect y="0.5" width="48" height="48" rx="8" fill="#F8F3F2"/>
<g clip-path="url(#clip0_957_2905)">
<path d="M33.332 11.1666V13.8333H30.6654V17.8333C32.8747 17.8333 34.6654 19.624 34.6654 21.8333V36.5C34.6654 37.236 34.068 37.8333 33.332 37.8333H14.6654C13.9294 37.8333 13.332 37.236 13.332 36.5V21.8333C13.332 19.624 15.1227 17.8333 17.332 17.8333V13.8333H14.6654V11.1666H33.332ZM30.6654 20.5H17.332C16.596 20.5 15.9987 21.0973 15.9987 21.8333V35.1666H31.9987V21.8333C31.9987 21.0973 31.4014 20.5 30.6654 20.5ZM25.332 23.1666V25.8333H27.9987V28.5H25.3307L25.332 31.1666H22.6654L22.664 28.5H19.9987V25.8333H22.6654V23.1666H25.332ZM27.9987 13.8333H19.9987V17.8333H27.9987V13.8333Z" fill="#AB948C"/>
</g>
<defs>
<clipPath id="clip0_957_2905">
<rect width="32" height="32" fill="white" transform="translate(8 8.5)"/>
</clipPath>
</defs>
</svg>
